<?xml version="1.0" encoding="utf-8"?>
<!-- Generator: Adobe Illustrator 18.0.0, SVG Export Plug-In . SVG Version: 6.00 Build 0)  -->
<!DOCTYPE svg PUBLIC "-//W3C//DTD SVG 1.1//EN" "http://www.w3.org/Graphics/SVG/1.1/DTD/svg11.dtd">
<svg version="1.1" id="Calque_1" xmlns="http://www.w3.org/2000/svg" xmlns:xlink="http://www.w3.org/1999/xlink" x="0px" y="0px"
	 viewBox="0 0 448.8 79.2" enable-background="new 0 0 448.8 79.2" xml:space="preserve">
<g>
	<g>
		<path fill="#506BB0" d="M443.7,36.2c-8.6-0.1-8.6-10.3-8.5-22.3c0.1-12-12.8-14.6-17.1-13.7c-4.3,0.9-2.6,5.9,0,6
			c13.8,0,10.2,14.7,10.2,22.3c0,7.6,7.7,10.3,7.7,10.3l0.9,0.9l-0.9,0.9c0,0-7.6,2.7-7.7,10.3c0,7.6,3.5,22.3-10.2,22.3
			c-2.6,0.1-4.3,5.1,0,6c4.3,0.9,17.1-1.7,17.1-13.7c-0.1-12-0.1-22.2,8.5-22.3c5.1-0.1,5.1-3.4,5.1-3.4S448.8,36.3,443.7,36.2z
			 M30.7,6.2c2.6-0.1,4.3-5.1,0-6c-4.3-0.9-17.1,1.7-17.1,13.7c0.1,12,0.1,22.2-8.5,22.3C0,36.3,0,39.6,0,39.6S0,43,5.1,43
			c8.6,0.1,8.6,10.3,8.5,22.3C13.6,77.3,26.4,80,30.7,79c4.3-0.9,2.6-5.9,0-6c-13.8,0-10.2-14.7-10.2-22.3c0-7.6-7.7-10.3-7.7-10.3
			L12,39.6l0.9-0.9c0,0,7.6-2.7,7.7-10.3C20.5,20.8,16.9,6.2,30.7,6.2z"/>
	</g>
</g>
<path fill="#B0AFB0" d="M57.5,25.1v24.5c0,4.8,1.1,8.2,3.4,10.4c2.3,2.2,5.7,3.2,10.2,3.2c2.6,0,5-0.5,7.1-1.5
	c2.1-1,3.7-2.4,4.8-4.2h0.3l0.8,5h4.7V25.1h-5.7v19.7c0,4.9-0.9,8.4-2.7,10.5c-1.8,2.1-4.7,3.2-8.6,3.2c-3,0-5.1-0.8-6.5-2.3
	c-1.4-1.5-2.1-3.8-2.1-6.8V25.1H57.5z"/>
<path fill="#B0AFB0" d="M132.2,62.5V38.1c0-4.8-1.1-8.3-3.4-10.4c-2.3-2.2-5.7-3.3-10.2-3.3c-2.6,0-4.9,0.5-7,1.5
	c-2.1,1-3.7,2.4-4.9,4.3h-0.3l-0.9-5.1h-4.6v37.5h5.7V42.9c0-4.9,0.9-8.4,2.7-10.5c1.8-2.1,4.7-3.2,8.6-3.2c3,0,5.1,0.8,6.5,2.3
	c1.4,1.5,2.1,3.8,2.1,6.8v24.2H132.2z"/>
<path fill="#B0AFB0" d="M170.2,62.5h4.6V9.4h-5.7v15.2l0.1,2.6l0.2,2.7h-0.4c-2.7-3.7-6.6-5.5-11.7-5.5c-4.9,0-8.7,1.7-11.4,5.1
	c-2.7,3.4-4.1,8.2-4.1,14.4c0,6.2,1.4,10.9,4.1,14.3c2.7,3.3,6.5,5,11.4,5c5.2,0,9.1-1.9,11.8-5.7h0.3L170.2,62.5z M150.4,54.8
	c-1.8-2.4-2.6-6-2.6-10.8c0-4.7,0.9-8.4,2.6-11c1.8-2.6,4.3-3.9,7.6-3.9c3.9,0,6.7,1.1,8.5,3.4c1.8,2.3,2.6,6.1,2.6,11.4v1.2
	c0,4.7-0.9,8.1-2.6,10.2c-1.7,2.1-4.6,3.2-8.4,3.2C154.7,58.5,152.1,57.2,150.4,54.8z"/>
<path fill="#B0AFB0" d="M209.2,62.7c1.8-0.4,3.7-1,5.7-1.9v-5.1c-3.9,1.7-7.9,2.5-12,2.5c-3.8,0-6.8-1.1-8.9-3.4
	c-2.1-2.3-3.2-5.6-3.3-10h25.8v-3.6c0-5.1-1.4-9.1-4.1-12.2c-2.7-3.1-6.4-4.6-11.1-4.6c-5,0-9,1.8-12,5.3s-4.5,8.4-4.5,14.4
	c0,6,1.6,10.7,4.8,14c3.2,3.4,7.6,5.1,13.1,5.1C205.3,63.2,207.4,63,209.2,62.7z M208,32c1.6,1.9,2.4,4.6,2.4,8.2h-19.6
	c0.3-3.5,1.4-6.2,3.2-8.1c1.8-2,4.2-2.9,7.2-2.9C204.2,29.1,206.4,30.1,208,32z"/>
<path fill="#B0AFB0" d="M243.1,25.1h-9.5v-2.4c0-3.1,0.5-5.4,1.5-6.9c1-1.4,2.6-2.1,4.8-2.1c1.5,0,3.4,0.4,5.6,1.1l1.5-4.5
	c-2.7-0.8-5-1.2-7-1.2c-8,0-12.1,4.6-12.1,13.8v2.1l-6.7,2.1v2.6h6.7v33.1h5.7V29.5h9.5V25.1z M255.7,25.1H250v37.5h5.7V25.1z
	 M250.5,17.8c0.6,0.6,1.4,0.9,2.4,0.9c0.9,0,1.7-0.3,2.4-0.9c0.7-0.6,1-1.6,1-2.9c0-1.3-0.3-2.2-1-2.8c-0.7-0.6-1.4-0.9-2.4-0.9
	c-1,0-1.8,0.3-2.4,0.9c-0.6,0.6-1,1.6-1,2.9C249.5,16.2,249.8,17.1,250.5,17.8z"/>
<path fill="#B0AFB0" d="M299.1,62.5V38.1c0-4.8-1.1-8.3-3.4-10.4c-2.3-2.2-5.7-3.3-10.2-3.3c-2.6,0-4.9,0.5-7,1.5
	c-2.1,1-3.7,2.4-4.9,4.3h-0.3l-0.9-5.1h-4.6v37.5h5.7V42.9c0-4.9,0.9-8.4,2.7-10.5c1.8-2.1,4.7-3.2,8.6-3.2c3,0,5.1,0.8,6.5,2.3
	c1.4,1.5,2.1,3.8,2.1,6.8v24.2H299.1z"/>
<path fill="#B0AFB0" d="M333.1,62.7c1.8-0.4,3.7-1,5.7-1.9v-5.1c-3.9,1.7-7.9,2.5-12,2.5c-3.8,0-6.8-1.1-8.9-3.4
	c-2.1-2.3-3.2-5.6-3.3-10h25.8v-3.6c0-5.1-1.4-9.1-4.1-12.2c-2.7-3.1-6.4-4.6-11.1-4.6c-5,0-9,1.8-12,5.3s-4.5,8.4-4.5,14.4
	c0,6,1.6,10.7,4.8,14c3.2,3.4,7.6,5.1,13.1,5.1C329.1,63.2,331.3,63,333.1,62.7z M331.9,32c1.6,1.9,2.4,4.6,2.4,8.2h-19.6
	c0.3-3.5,1.4-6.2,3.2-8.1c1.8-2,4.2-2.9,7.2-2.9C328,29.1,330.3,30.1,331.9,32z"/>
<path fill="#B0AFB0" d="M376.4,62.5h4.6V9.4h-5.7v15.2l0.1,2.6l0.2,2.7h-0.4c-2.7-3.7-6.6-5.5-11.7-5.5c-4.9,0-8.7,1.7-11.4,5.1
	c-2.7,3.4-4.1,8.2-4.1,14.4c0,6.2,1.4,10.9,4.1,14.3c2.7,3.3,6.5,5,11.4,5c5.2,0,9.1-1.9,11.8-5.7h0.3L376.4,62.5z M356.6,54.8
	c-1.8-2.4-2.6-6-2.6-10.8c0-4.7,0.9-8.4,2.6-11c1.8-2.6,4.3-3.9,7.6-3.9c3.9,0,6.7,1.1,8.5,3.4c1.8,2.3,2.6,6.1,2.6,11.4v1.2
	c0,4.7-0.9,8.1-2.6,10.2c-1.7,2.1-4.6,3.2-8.4,3.2C360.9,58.5,358.3,57.2,356.6,54.8z"/>
</svg>
